<?xml version="1.0" ?><svg height="32" id="svg4475" version="1.1" width="32" xmlns="http://www.w3.org/2000/svg" xmlns:cc="http://creativecommons.org/ns#" xmlns:dc="http://purl.org/dc/elements/1.1/" xmlns:inkscape="http://www.inkscape.org/namespaces/inkscape" xmlns:rdf="http://www.w3.org/1999/02/22-rdf-syntax-ns#" xmlns:sodipodi="http://sodipodi.sourceforge.net/DTD/sodipodi-0.dtd" xmlns:svg="http://www.w3.org/2000/svg"><defs id="defs4477"/><g id="layer1" transform="translate(0,-1020.3622)"><g id="g10414" transform="translate(309.5948,-461.25192)"><g id="g15415" transform="translate(66.405195,515.25192)"><g id="g15417" transform="translate(-150,-49.999983)"><g id="g14600" transform="translate(-49.999995,-130.00002)"><path d="M 12.375 1 C 10.44784 1 8.875 2.5731 8.875 4.5 C 8.875 6.427 10.44784 8 12.375 8 C 14.30216 8 15.875 6.427 15.875 4.5 C 15.875 2.5731 14.30216 1 12.375 1 z M 12.375 2 C 13.183978 2 13.887584 2.4089715 14.34375 3 L 13.875 3 A 0.50005 0.50005 0 0 0 13.71875 3 A 0.50606671 0.50606671 0 1 0 13.875 4 L 14.8125 4 C 14.845653 4.1631383 14.875 4.3267 14.875 4.5 C 14.875 4.6632568 14.842002 4.8456804 14.8125 5 L 14.375 5 A 0.50005 0.50005 0 0 0 14.21875 5 A 0.50606671 0.50606671 0 0 0 14.3125 6.03125 C 13.855853 6.61381 13.177222 7 12.375 7 C 12.132307 7 11.908944 6.9699574 11.6875 6.90625 A 0.50005 0.50005 0 0 0 11.375 6 L 10.4375 6 A 0.50005 0.50005 0 0 0 10.375 6 C 10.155519 5.7048183 10.009472 5.3764727 9.9375 5 L 10.375 5 A 0.50005 0.50005 0 1 0 10.375 4 L 9.9375 4 C 10.16957 2.858032 11.161532 2 12.375 2 z M 11.875 3 C 11.598837 3 11.375 3.2237768 11.375 3.5 C 11.375 3.7761232 11.598837 4 11.875 4 C 12.151163 4 12.375 3.7761232 12.375 3.5 C 12.375 3.2237768 12.151163 3 11.875 3 z M 12.875 5 C 12.598837 5 12.375 5.2237768 12.375 5.5 C 12.375 5.7761232 12.598837 6 12.875 6 C 13.151163 6 13.375 5.7761232 13.375 5.5 C 13.375 5.2237768 13.151163 5 12.875 5 z M 9.75 10.75 C 4.99337 10.75 1.125 14.6184 1.125 19.375 C 1.125 24.1316 4.99337 28 9.75 28 C 14.50663 28 18.375 24.1316 18.375 19.375 C 18.375 14.6184 14.50663 10.75 9.75 10.75 z M 25.875 11 C 23.11928 11 20.875 13.2443 20.875 16 C 20.875 18.7557 23.11928 21 25.875 21 C 28.63071 21 30.875 18.7557 30.875 16 C 30.875 13.2443 28.63071 11 25.875 11 z M 9.75 11.75 C 13.96619 11.75 17.375 15.1588 17.375 19.375 C 17.375 23.5911 13.96619 27 9.75 27 C 5.5338 27 2.125 23.5911 2.125 19.375 C 2.125 15.1588 5.5338 11.75 9.75 11.75 z M 25.875 12 C 28.09026 12 29.875 13.7847 29.875 16 C 29.875 18.2153 28.09026 20 25.875 20 C 24.838724 20 23.896809 19.611284 23.1875 18.96875 C 23.868237 18.827807 24.375 18.219775 24.375 17.5 C 24.375 16.6775 23.69755 16 22.875 16 C 22.510901 16 22.167344 16.155668 21.90625 16.375 C 21.894711 16.250762 21.875 16.127339 21.875 16 C 21.875 13.7847 23.65973 12 25.875 12 z M 24.375 13 C 24.098847 13 23.875 13.223777 23.875 13.5 C 23.875 13.776123 24.098847 14 24.375 14 C 24.651163 14 24.875 13.776123 24.875 13.5 C 24.875 13.223777 24.651163 13 24.375 13 z M 8.1875 13.0625 A 0.50004994 0.50004994 0 0 0 7.84375 13.5625 A 0.50004994 0.50004994 0 0 0 8.34375 14.0625 C 8.43615 14.0625 8.49999 14.12645 8.5 14.21875 C 8.49999 14.31075 8.4362 14.375 8.34375 14.375 A 0.50004994 0.50004994 0 1 0 8.34375 15.375 C 8.97653 15.375 9.49995 14.85155 9.5 14.21875 C 9.49995 13.58585 8.97653 13.0625 8.34375 13.0625 A 0.50004994 0.50004994 0 0 0 8.1875 13.0625 z M 12.75 13.5 C 12.530227 13.516163 12.31927 13.5784 12.125 13.6875 C 11.40762 14.0899 11.16007 15.00125 11.5625 15.71875 C 11.96494 16.43605 12.87637 16.68385 13.59375 16.28125 A 0.50004996 0.50004991 0 1 0 13.125 15.4375 C 12.87896 15.5755 12.57552 15.46455 12.4375 15.21875 C 12.29947 14.97265 12.37899 14.7005 12.625 14.5625 C 12.75492 14.4895 12.92341 14.47725 13.0625 14.53125 A 0.50004996 0.50004991 0 1 0 13.40625 13.59375 C 13.19825 13.514 12.969773 13.483837 12.75 13.5 z M 27 14 C 26.780227 14.016163 26.56927 14.0784 26.375 14.1875 C 25.65762 14.59 25.41007 15.50135 25.8125 16.21875 C 26.21493 16.93615 27.12637 17.18375 27.84375 16.78125 A 0.50004996 0.50004991 0 1 0 27.375 15.9375 C 27.12896 16.0755 26.82553 15.96445 26.6875 15.71875 C 26.54948 15.47265 26.62898 15.2005 26.875 15.0625 C 27.00492 14.9895 27.1734 14.97725 27.3125 15.03125 A 0.50004996 0.50004991 0 1 0 27.65625 14.09375 C 27.44825 14.014 27.219773 13.983837 27 14 z M 5.375 16 C 5.0988368 16 4.875 16.223777 4.875 16.5 C 4.875 16.776123 5.0988368 17 5.375 17 C 5.6511632 17 5.875 16.776123 5.875 16.5 C 5.875 16.223777 5.6511632 16 5.375 16 z M 22.875 17 C 23.15712 17 23.375 17.2179 23.375 17.5 C 23.375 17.7822 23.15712 18 22.875 18 C 22.59289 18 22.375 17.7822 22.375 17.5 C 22.375 17.2179 22.59289 17 22.875 17 z M 9.3125 17.75 C 8.21379 17.75 7.3125 18.6513 7.3125 19.75 C 7.3125 20.8487 8.21379 21.75 9.3125 21.75 C 10.41121 21.75 11.3125 20.8487 11.3125 19.75 C 11.3125 18.6513 10.41121 17.75 9.3125 17.75 z M 26.375 18 C 26.098847 18 25.875 18.223777 25.875 18.5 C 25.875 18.776123 26.098847 19 26.375 19 C 26.651163 19 26.875 18.776123 26.875 18.5 C 26.875 18.223777 26.651163 18 26.375 18 z M 13.875 18.0625 C 13.05245 18.0625 12.375 18.7399 12.375 19.5625 C 12.375 20.3851 13.05245 21.0625 13.875 21.0625 C 14.69755 21.0625 15.375 20.3851 15.375 19.5625 C 15.375 18.7399 14.69755 18.0625 13.875 18.0625 z M 9.3125 18.75 C 9.87078 18.75 10.3125 19.1918 10.3125 19.75 C 10.3125 20.3083 9.87078 20.75 9.3125 20.75 C 8.75423 20.75 8.3125 20.3083 8.3125 19.75 C 8.3125 19.1918 8.75423 18.75 9.3125 18.75 z M 13.875 19.0625 C 14.15711 19.0625 14.375 19.2804 14.375 19.5625 C 14.375 19.8446 14.15711 20.0625 13.875 20.0625 C 13.59288 20.0625 13.375 19.8446 13.375 19.5625 C 13.375 19.2804 13.59288 19.0625 13.875 19.0625 z M 5.375 20.25 C 4.55245 20.25 3.875 20.9274 3.875 21.75 C 3.875 22.5726 4.55245 23.25 5.375 23.25 C 6.19755 23.25 6.875 22.5726 6.875 21.75 C 6.875 20.9274 6.19755 20.25 5.375 20.25 z M 5.375 21.25 C 5.65712 21.25 5.875 21.4679 5.875 21.75 C 5.875 22.0321 5.65712 22.25 5.375 22.25 C 5.09289 22.25 4.875 22.0321 4.875 21.75 C 4.875 21.4679 5.09289 21.25 5.375 21.25 z M 13.375 22 C 13.098837 22 12.875 22.223777 12.875 22.5 C 12.875 22.776123 13.098837 23 13.375 23 C 13.651163 23 13.875 22.776123 13.875 22.5 C 13.875 22.223777 13.651163 22 13.375 22 z M 22.875 23 C 20.947095 23 19.342832 24.39885 18.96875 26.21875 A 0.50606671 0.50606671 0 0 0 18.9375 26.59375 C 18.92258 26.733681 18.875 26.856225 18.875 27 C 18.875 27.599889 19.011603 28.175879 19.25 28.6875 A 0.50606671 0.50606671 0 0 0 19.375 28.875 C 20.049832 30.134858 21.350569 31 22.875 31 C 25.07833 31 26.875 29.2031 26.875 27 C 26.875 24.7969 25.07833 23 22.875 23 z M 10.1875 23.1875 C 9.47049 23.1867 8.87426 23.75195 8.875 24.46875 C 8.87575 25.18545 9.47049 25.78045 10.1875 25.78125 A 0.50056983 0.49953062 0.78537504 1 0 10.1875 24.78125 C 10.01288 24.78105 9.87518 24.64695 9.875 24.46875 C 9.87481 24.29055 10.01289 24.1873 10.1875 24.1875 C 10.2687 24.1875 10.34828 24.187 10.40625 24.25 A 0.50056983 0.49953062 0.78537504 0 0 11.25 23.8125 A 0.50056983 0.49953062 0.78537504 0 0 11.125 23.5625 C 10.8799 23.3165 10.53448 23.1878 10.1875 23.1875 z M 22.875 24 C 23.760565 24 24.54566 24.394275 25.09375 25 L 22.375 25 A 0.50005 0.50005 0 0 0 22.21875 25 A 0.50606671 0.50606671 0 1 0 22.375 26 L 25.6875 26 C 25.802064 26.318553 25.875 26.640943 25.875 27 L 24.375 27 A 0.50005 0.50005 0 0 0 24.21875 27 A 0.50606671 0.50606671 0 1 0 24.375 28 L 25.71875 28 C 25.313149 29.175645 24.192511 30 22.875 30 C 21.987267 30 21.204475 29.608333 20.65625 29 L 22.375 29 A 0.50005 0.50005 0 1 0 22.375 28 L 20.0625 28 C 19.955564 27.690986 19.875 27.346375 19.875 27 L 20.375 27 A 0.50005 0.50005 0 1 0 20.375 26 L 20.0625 26 C 20.476679 24.840358 21.568876 24 22.875 24 z " id="circle11644" style="font-size:medium;font-style:normal;font-variant:normal;font-weight:normal;font-stretch:normal;text-indent:0;text-align:start;text-decoration:none;line-height:normal;letter-spacing:normal;word-spacing:normal;text-transform:none;direction:ltr;block-progression:tb;writing-mode:lr-tb;text-anchor:start;baseline-shift:baseline;color:#000000;fill:#000000;fill-opacity:1;stroke:none;stroke-width:0.99991584;marker:none;visibility:visible;display:inline;overflow:visible;enable-background:accumulate;font-family:Sans;-inkscape-font-specification:Sans" transform="translate(-176,1146.3622)"/></g></g></g></g></g></svg>